<?xml version="1.0" standalone="no"?>
<!DOCTYPE svg PUBLIC "-//W3C//DTD SVG 1.1//EN" "http://www.w3.org/Graphics/SVG/1.1/DTD/svg11.dtd">
<svg width="100%" height="100%" viewBox="0 0 25 25" version="1.1" xmlns="http://www.w3.org/2000/svg" xmlns:xlink="http://www.w3.org/1999/xlink" xml:space="preserve" style="fill-rule:evenodd;clip-rule:evenodd;stroke-linejoin:round;stroke-miterlimit:1.41421;">
    <g id="Layer2">
        <path d="M19.9891,7.83243C19.4361,8.07718 18.8448,8.24247 18.2218,8.31876C18.8575,7.93732 19.347,7.33338 19.5759,6.61501C18.9815,6.96784 18.3235,7.22531 17.621,7.36199C17.0584,6.76123 16.2574,6.38615 15.3737,6.38615C13.6732,6.38615 12.2968,7.76568 12.2968,9.46625C12.2968,9.70782 12.3223,9.94304 12.3763,10.1687C9.81749,10.0416 7.54794,8.81463 6.03173,6.94877C5.7679,7.40331 5.61533,7.93414 5.61533,8.49676C5.61533,9.56479 6.16205,10.5088 6.9885,11.0619C6.47992,11.0492 6.00312,10.9094 5.5899,10.6773C5.5899,10.69 5.5899,10.7027 5.5899,10.7155C5.5899,12.2094 6.65156,13.4523 8.0597,13.7352C7.80223,13.8051 7.52887,13.8432 7.24915,13.8432C7.05207,13.8432 6.85817,13.8242 6.67063,13.786C7.06161,15.0098 8.19956,15.8998 9.5473,15.9252C8.49517,16.7517 7.1665,17.2444 5.7234,17.2444C5.47547,17.2444 5.23071,17.2285 4.98913,17.1999C6.34641,18.0835 7.96434,18.5921 9.69988,18.5921C15.3674,18.5921 18.4634,13.8973 18.4634,9.82543C18.4634,9.69193 18.4602,9.55843 18.4539,9.4281C19.0546,8.99263 19.5759,8.45226 19.9891,7.83243Z" style="fill:rgb(228,228,228);fill-rule:nonzero;"/>
    </g>
</svg>
