<?xml version="1.0" standalone="no"?>
<!DOCTYPE svg PUBLIC "-//W3C//DTD SVG 1.1//EN" "http://www.w3.org/Graphics/SVG/1.1/DTD/svg11.dtd">
<svg width="100%" height="100%" viewBox="0 0 25 25" version="1.1" xmlns="http://www.w3.org/2000/svg" xmlns:xlink="http://www.w3.org/1999/xlink" xml:space="preserve" style="fill-rule:evenodd;clip-rule:evenodd;stroke-linejoin:round;stroke-miterlimit:1.41421;">
    <g id="Layer3">
        <g>
            <path d="M8.21554,19.9971L8.21554,9.9756L5,9.9756L5,19.9971L8.21554,19.9971ZM6.72784,8.45861C7.79969,8.45861 8.4674,7.69133 8.4674,6.73077C8.44982,5.75264 7.79969,5.00293 6.74541,5.00293C5.69114,5.00293 5.00586,5.75264 5.00586,6.73077C5.00586,7.69133 5.67357,8.45861 6.70441,8.45861L6.72784,8.45861Z" style="fill:rgb(228,228,228);"/>
            <path d="M16.2866,9.74717C14.5822,9.74717 13.8501,10.7077 13.3815,11.3754L13.3815,9.98145L10.1601,9.98145L10.1601,19.9971L13.3815,19.9971L13.3815,14.2923C13.3815,13.9994 13.4049,13.7066 13.4928,13.5016C13.7271,12.9159 14.2542,12.3126 15.1445,12.3126C16.31,12.3126 16.7786,13.2087 16.7786,14.5207L16.7786,19.9971L20,19.9971L20,14.1458C20,11.1412 18.4069,9.74717 16.2866,9.74717Z" style="fill:rgb(228,228,228);"/>
        </g>
    </g>
</svg>
